<svg id="Layer_1" data-name="Layer 1" xmlns="http://www.w3.org/2000/svg" viewBox="0 0 117.43 25.48"><defs><style>.cls-1{fill:#1e1f21;}.cls-2{fill:#231f20;}</style></defs><title>logo</title><path class="cls-1" d="M0,22.29v-.9l8.4-5.22,1,1.62-6.55,4,6.55,3.87-1,1.62Z" transform="translate(0.04 -4.64)"/><path class="cls-1" d="M11.62,15h8v2.2H14.09v3.11h5.13v2.2H14.09V27.6H11.62Z" transform="translate(0.04 -4.64)"/><path class="cls-1" d="M21.61,25.62h2.23v-5H21.61v-2h4.05l.27,1.19H26a4.55,4.55,0,0,1,1.16-1,2.77,2.77,0,0,1,1.51-.4,2.07,2.07,0,0,1,1.7.79A4.39,4.39,0,0,1,31,21.84H28.88a1.74,1.74,0,0,0-.19-.94.64.64,0,0,0-.6-.3,1.77,1.77,0,0,0-1.16.36,3.71,3.71,0,0,0-.75.83v3.83h3.91v2H21.61Z" transform="translate(0.04 -4.64)"/><path class="cls-1" d="M32.34,23.1a5.52,5.52,0,0,1,.34-2,4.23,4.23,0,0,1,1-1.49,4.09,4.09,0,0,1,1.51-.93,5.7,5.7,0,0,1,2-.31,5.56,5.56,0,0,1,2,.34,4.25,4.25,0,0,1,1.51,1,4.2,4.2,0,0,1,.92,1.51,5.68,5.68,0,0,1,.32,1.94,5.74,5.74,0,0,1-.34,2,4.25,4.25,0,0,1-1,1.49,4.13,4.13,0,0,1-1.5.93,5.7,5.7,0,0,1-2,.31,5.61,5.61,0,0,1-2-.34,4.3,4.3,0,0,1-1.5-1A4.09,4.09,0,0,1,32.65,25,5.68,5.68,0,0,1,32.34,23.1Zm2.41,0a3.52,3.52,0,0,0,.16,1.1,2.85,2.85,0,0,0,.47.88,2.13,2.13,0,0,0,.74.59,2.4,2.4,0,0,0,1,.2,2.31,2.31,0,0,0,1.7-.66,2.92,2.92,0,0,0,.66-2.11,3.11,3.11,0,0,0-.62-2,2.09,2.09,0,0,0-1.74-.76,2.85,2.85,0,0,0-.94.15,1.77,1.77,0,0,0-.74.5,2.33,2.33,0,0,0-.5.86A3.9,3.9,0,0,0,34.75,23.1Z" transform="translate(0.04 -4.64)"/><path class="cls-1" d="M42.72,18.6h3.15l.27,1.19h.08a3.5,3.5,0,0,1,1.18-1,3.76,3.76,0,0,1,1.86-.43,4.24,4.24,0,0,1,1.25.18,2.46,2.46,0,0,1,1,.59,3.07,3.07,0,0,1,.66,1.13A5.52,5.52,0,0,1,52.41,22v5.6H50.07V22.49a2.18,2.18,0,0,0-.5-1.59,1.71,1.71,0,0,0-1.25-.48,2,2,0,0,0-1.21.39,1.85,1.85,0,0,0-.75,1V27.6H44v-7h-1.3Z" transform="translate(0.04 -4.64)"/><path class="cls-1" d="M55.4,20.58H53.61v-2H55.4V16.55l2.34-.67V18.6h4.71v2H57.74v2.57a3.09,3.09,0,0,0,.52,2,1.78,1.78,0,0,0,1.46.62,3.48,3.48,0,0,0,.88-.11,3.52,3.52,0,0,0,.71-.3,4,4,0,0,0,.58-.4l.47-.39,1.08,1.62a3.25,3.25,0,0,1-.76.65,6.69,6.69,0,0,1-1,.53,7.15,7.15,0,0,1-1.11.35,5.5,5.5,0,0,1-1.13.12,3.89,3.89,0,0,1-3-1.12,5.28,5.28,0,0,1-1-3.58Z" transform="translate(0.04 -4.64)"/><path class="cls-1" d="M73.72,26.65a3.89,3.89,0,0,1-.6.42,5.94,5.94,0,0,1-.87.39,6.42,6.42,0,0,1-1.09.28,7,7,0,0,1-3.32-.21,4.17,4.17,0,0,1-1.54-1,4.07,4.07,0,0,1-1-1.49,5.61,5.61,0,0,1-.33-2A5.18,5.18,0,0,1,65.39,21a4.06,4.06,0,0,1,1-1.48A4.15,4.15,0,0,1,68,18.65a6,6,0,0,1,3.32-.12,3.73,3.73,0,0,1,1.34.62,3.32,3.32,0,0,1,1,1.18A4,4,0,0,1,74,22.2a8.5,8.5,0,0,1-.18,1.67H67.35a2.09,2.09,0,0,0,.24,1,1.84,1.84,0,0,0,.6.64,2.29,2.29,0,0,0,.84.37,4.19,4.19,0,0,0,1,.12,5.19,5.19,0,0,0,1.77-.25A3.87,3.87,0,0,0,73,25.12Zm-3.89-6.43a2.84,2.84,0,0,0-.88.13,2.5,2.5,0,0,0-.75.37,2.19,2.19,0,0,0-.55.62,2,2,0,0,0-.25.82h4.43a1.77,1.77,0,0,0-2-1.94Z" transform="translate(0.04 -4.64)"/><path class="cls-1" d="M75.12,18.6h3.15l.27,1.19h.08a3.5,3.5,0,0,1,1.18-1,3.76,3.76,0,0,1,1.86-.43,4.24,4.24,0,0,1,1.25.18,2.46,2.46,0,0,1,1,.59,3.07,3.07,0,0,1,.66,1.13A5.52,5.52,0,0,1,84.81,22v5.6H82.47V22.49A2.18,2.18,0,0,0,82,20.9a1.71,1.71,0,0,0-1.25-.48,2,2,0,0,0-1.21.39,1.85,1.85,0,0,0-.75,1V27.6H76.42v-7h-1.3Z" transform="translate(0.04 -4.64)"/><path class="cls-1" d="M91.22,15H95v7.78a26,26,0,0,0,.14,2.66,1.1,1.1,0,0,0,0,.18h1.15v2h-2.9l-.23-1.15h-.07a1.89,1.89,0,0,1-.49.57,3.65,3.65,0,0,1-.68.45,3.52,3.52,0,0,1-.83.28,3.94,3.94,0,0,1-.9.1,4.62,4.62,0,0,1-1.59-.27,3.53,3.53,0,0,1-1.31-.83,4.12,4.12,0,0,1-.88-1.44,5.89,5.89,0,0,1-.32-2.07,5.51,5.51,0,0,1,.35-2,4.17,4.17,0,0,1,2.44-2.47,5,5,0,0,1,1.85-.34,8.67,8.67,0,0,1,1,.07,3.76,3.76,0,0,1,.86.2V17H91.22Zm-.49,10.87a2.22,2.22,0,0,0,1.21-.33,1.53,1.53,0,0,0,.7-1V20.76a1.82,1.82,0,0,0-.7-.3,4.55,4.55,0,0,0-.92-.1,2.8,2.8,0,0,0-1,.17,2.18,2.18,0,0,0-.81.51,2.56,2.56,0,0,0-.56.91,4.17,4.17,0,0,0-.2,1.37,2.86,2.86,0,0,0,.57,1.85A2,2,0,0,0,90.73,25.87Z" transform="translate(0.04 -4.64)"/><path class="cls-1" d="M104.23,14.78l1.76.8L99.57,30.12l-1.77-.83Z" transform="translate(0.04 -4.64)"/><path class="cls-1" d="M109,27.24l-1-1.62,6.55-3.87-6.55-4,1-1.62,8.41,5.22v.9Z" transform="translate(0.04 -4.64)"/><path class="cls-2" d="M26.39,9.29V13h-1.1V9.29h-.4v-1h.4V6.43a2,2,0,0,1,.31-1.27,1.51,1.51,0,0,1,1.25-.52,2.3,2.3,0,0,1,.74.17V5.94l-.12-.06a1.34,1.34,0,0,0-.58-.18.4.4,0,0,0-.4.21,2,2,0,0,0-.1.79V8.26h1.2v1Z" transform="translate(0.04 -4.64)"/><path class="cls-2" d="M28.12,10.61a2.39,2.39,0,0,1,.73-1.76,2.61,2.61,0,0,1,3.61,0,2.41,2.41,0,0,1,.73,1.79,2.38,2.38,0,0,1-.74,1.79,2.5,2.5,0,0,1-1.82.72,2.41,2.41,0,0,1-1.79-.74A2.45,2.45,0,0,1,28.12,10.61Zm1.12,0a1.64,1.64,0,0,0,.38,1.13,1.35,1.35,0,0,0,1,.42,1.33,1.33,0,0,0,1-.42,1.57,1.57,0,0,0,.39-1.11,1.57,1.57,0,0,0-.39-1.11,1.46,1.46,0,0,0-2.05,0A1.53,1.53,0,0,0,29.24,10.63Z" transform="translate(0.04 -4.64)"/><path class="cls-2" d="M34.35,8.26h1.1v.43A2.12,2.12,0,0,1,36,8.25a1.25,1.25,0,0,1,.56-.12,1.76,1.76,0,0,1,.91.29l-.5,1a1,1,0,0,0-.61-.22q-.9,0-.9,1.35V13h-1.1Z" transform="translate(0.04 -4.64)"/><path class="cls-2" d="M42.28,4.77V8.82a2,2,0,0,1,3.09,0A2.56,2.56,0,0,1,46,10.63a2.59,2.59,0,0,1-.64,1.81,2.08,2.08,0,0,1-1.62.72,2,2,0,0,1-1.47-.64V13h-1.1V4.77Zm2.61,5.91a1.65,1.65,0,0,0-.37-1.12,1.2,1.2,0,0,0-.94-.44,1.27,1.27,0,0,0-1,.43,1.57,1.57,0,0,0-.38,1.09,1.61,1.61,0,0,0,.38,1.11,1.29,1.29,0,0,0,1.92,0A1.57,1.57,0,0,0,44.89,10.68Z" transform="translate(0.04 -4.64)"/><path class="cls-2" d="M51.51,10.9H48.1a1.41,1.41,0,0,0,.38.93,1.15,1.15,0,0,0,.86.35A1.12,1.12,0,0,0,50,12a2.62,2.62,0,0,0,.6-.72l.93.51a3.19,3.19,0,0,1-.45.63,2.09,2.09,0,0,1-.52.43,2.06,2.06,0,0,1-.59.25,3,3,0,0,1-.69.08,2.19,2.19,0,0,1-1.7-.69A2.55,2.55,0,0,1,47,10.65a2.64,2.64,0,0,1,.63-1.83,2.38,2.38,0,0,1,3.33,0,2.65,2.65,0,0,1,.6,1.84ZM50.38,10a1.06,1.06,0,0,0-1.11-.88,1.21,1.21,0,0,0-.38.06,1.45,1.45,0,0,0-.32.18,1.32,1.32,0,0,0-.4.64Z" transform="translate(0.04 -4.64)"/><path class="cls-2" d="M57.31,12.91a5.15,5.15,0,0,1,0,.59,2.73,2.73,0,0,1-.06.45,2,2,0,0,1-.46.93,2.22,2.22,0,0,1-1.77.74,2.32,2.32,0,0,1-1.56-.52,2.07,2.07,0,0,1-.74-1.45H53.8a1.22,1.22,0,0,0,.21.54,1.18,1.18,0,0,0,1,.44c.81,0,1.21-.49,1.21-1.48v-.66a2.08,2.08,0,0,1-1.51.67,2,2,0,0,1-1.59-.71,2.58,2.58,0,0,1-.63-1.78,2.81,2.81,0,0,1,.58-1.77,2,2,0,0,1,1.65-.77,2,2,0,0,1,1.5.67V8.26h1.1Zm-1.06-2.26a1.6,1.6,0,0,0-.37-1.11,1.23,1.23,0,0,0-1-.42,1.18,1.18,0,0,0-1,.46,1.69,1.69,0,0,0-.32,1.08,1.65,1.65,0,0,0,.32,1.06,1.21,1.21,0,0,0,1,.46,1.24,1.24,0,0,0,1-.46A1.69,1.69,0,0,0,56.25,10.65Z" transform="translate(0.04 -4.64)"/><path class="cls-2" d="M58.53,6.29a.67.67,0,0,1,.21-.5.71.71,0,0,1,1,0,.67.67,0,0,1,.21.5.72.72,0,1,1-1.43,0Zm1.26,2V13h-1.1V8.26Z" transform="translate(0.04 -4.64)"/><path class="cls-2" d="M61.18,8.26h1.11V8.7a1.78,1.78,0,0,1,1.3-.57,1.66,1.66,0,0,1,1.29.52,2.13,2.13,0,0,1,.4,1.45V13h-1.1V10.36a1.75,1.75,0,0,0-.2-1,.8.8,0,0,0-.69-.27.85.85,0,0,0-.78.36,2.5,2.5,0,0,0-.22,1.25V13H61.18Z" transform="translate(0.04 -4.64)"/><path class="cls-2" d="M66.67,8.26h1.1V8.7a1.82,1.82,0,0,1,1.3-.57,1.66,1.66,0,0,1,1.29.52,2.13,2.13,0,0,1,.4,1.45V13h-1.1V10.36a1.77,1.77,0,0,0-.19-1,.8.8,0,0,0-.7-.27.84.84,0,0,0-.77.36,2.48,2.48,0,0,0-.23,1.25V13h-1.1Z" transform="translate(0.04 -4.64)"/><path class="cls-2" d="M76.48,10.9H73.07a1.46,1.46,0,0,0,.38.93,1.18,1.18,0,0,0,.87.35A1.14,1.14,0,0,0,75,12a3,3,0,0,0,.6-.72l.93.51a3.67,3.67,0,0,1-.46.63,2.24,2.24,0,0,1-.51.43,2.06,2.06,0,0,1-.59.25,3,3,0,0,1-.69.08,2.23,2.23,0,0,1-1.71-.69,2.54,2.54,0,0,1-.64-1.82,2.64,2.64,0,0,1,.62-1.83,2.38,2.38,0,0,1,3.33,0,2.65,2.65,0,0,1,.61,1.84ZM75.35,10a1.05,1.05,0,0,0-1.1-.88,1.16,1.16,0,0,0-.38.06,1.26,1.26,0,0,0-.32.18,1.12,1.12,0,0,0-.25.28,1.05,1.05,0,0,0-.15.36Z" transform="translate(0.04 -4.64)"/><path class="cls-2" d="M77.68,8.26h1.1v.43a2.12,2.12,0,0,1,.54-.44,1.26,1.26,0,0,1,.57-.12,1.76,1.76,0,0,1,.9.29l-.5,1a1,1,0,0,0-.61-.22q-.9,0-.9,1.35V13h-1.1Z" transform="translate(0.04 -4.64)"/><path class="cls-2" d="M84.19,9.07l-.91.49c-.14-.29-.32-.44-.53-.44a.35.35,0,0,0-.26.1.35.35,0,0,0-.11.26q0,.27.63.54a3.72,3.72,0,0,1,1.18.69,1.19,1.19,0,0,1,.3.85,1.54,1.54,0,0,1-.5,1.16,1.75,1.75,0,0,1-1.19.44A1.73,1.73,0,0,1,81.1,12l.94-.43a2.05,2.05,0,0,0,.3.43.68.68,0,0,0,.47.19c.38,0,.56-.17.56-.51s-.14-.38-.43-.55L82.61,11l-.34-.16a2,2,0,0,1-.67-.47,1.13,1.13,0,0,1-.25-.77,1.36,1.36,0,0,1,.42-1,1.51,1.51,0,0,1,1.06-.41A1.45,1.45,0,0,1,84.19,9.07Z" transform="translate(0.04 -4.64)"/></svg>