<?xml version="1.0" encoding="utf-8"?>
<!-- Generator: Adobe Illustrator 23.0.1, SVG Export Plug-In . SVG Version: 6.00 Build 0)  -->
<svg version="1.1" id="Layer_1" xmlns="http://www.w3.org/2000/svg" xmlns:xlink="http://www.w3.org/1999/xlink" x="0px" y="0px"
	 viewBox="0 0 27.5 27.5" style="enable-background:new 0 0 27.5 27.5;" xml:space="preserve">
<style type="text/css">
	.st0{fill:#221F1F;}
</style>
<title>facebook</title>
<path class="st0" d="M15.2,7.5c0.3-0.3,0.8-0.4,1.2-0.4c0.6,0,1.2,0.1,1.8,0.2l0.5-2.8c-1-0.3-2.1-0.5-3.2-0.5
	c-0.9,0-1.9,0.2-2.7,0.6c-0.6,0.3-1.2,0.8-1.5,1.5C11,7.1,10.9,8,10.9,9v1.1H8.8v3.1h2.2V23c0.9,0.2,1.9,0.3,2.8,0.3
	c0.4,0,0.7,0,1.1-0.1V13.2h2.9v-3.1h-2.9v-1C14.8,8.5,14.9,8,15.2,7.5z"/>
</svg>
