<svg id="Layer_1" data-name="Layer 1" xmlns="http://www.w3.org/2000/svg" viewBox="0 0 27.5 27.49"><defs><style>.cls-1{fill:#221f1f;}</style></defs><title>facebook</title><path class="cls-1" d="M512,370.34a13.07,13.07,0,0,1,1.11,26.09,6.89,6.89,0,0,1-1.11.06,12.46,12.46,0,0,1-2.83-.3A13.08,13.08,0,0,1,512,370.34m0-.67a13.75,13.75,0,0,0-3,27.18,14.33,14.33,0,0,0,3,.31,8.45,8.45,0,0,0,1.23-.06A13.74,13.74,0,0,0,512,369.67Z" transform="translate(-498.25 -369.67)"/><path class="cls-1" d="M513.5,380.66a1.59,1.59,0,0,1,1.19-.4,6.81,6.81,0,0,1,1.78.25l.51-2.75a9.78,9.78,0,0,0-3.24-.47,5.3,5.3,0,0,0-2.7.58,3,3,0,0,0-1.45,1.48,7.16,7.16,0,0,0-.4,2.77v1.08H507v3.13h2.17v9.86a12.46,12.46,0,0,0,2.83.3,6.89,6.89,0,0,0,1.11-.06v-10.1H516V383.2h-2.87v-1A2.21,2.21,0,0,1,513.5,380.66Z" transform="translate(-498.25 -369.67)"/></svg>