<svg id="Layer_1" data-name="Layer 1" xmlns="http://www.w3.org/2000/svg" viewBox="0 0 27.5 27.5"><defs><style>.cls-1,.cls-2{fill:#221f1f;}.cls-2{fill-rule:evenodd;}</style></defs><title>instagram</title><path class="cls-1" d="M512.37,370.33a13.08,13.08,0,1,1-13.08,13.08,13.09,13.09,0,0,1,13.08-13.08m0-.67a13.75,13.75,0,1,0,13.75,13.75,13.76,13.76,0,0,0-13.75-13.75Z" transform="translate(-498.62 -369.66)"/><path class="cls-2" d="M517.57,376.35h-10.4a1.68,1.68,0,0,0-1.88,1.89v10.38a1.66,1.66,0,0,0,1.82,1.85h10.46a1.68,1.68,0,0,0,1.87-1.86V378.2A1.68,1.68,0,0,0,517.57,376.35ZM516.42,378c1.41,0,1.41,0,1.41,1.4s0,1.36-1.38,1.36-1.39,0-1.39-1.38S515.06,378,516.42,378Zm-4,2.71a2.74,2.74,0,1,1-2.76,2.72A2.8,2.8,0,0,1,512.38,380.67Zm5.45,7.36c0,.66-.19.84-.84.84h-9.24c-.65,0-.83-.18-.83-.84,0-1.7,0-3.43,0-5.15,0-.49.14-.59.59-.58.64.05.66,0,.58.66a4.33,4.33,0,0,0,8.46,1.68,4.24,4.24,0,0,0,.1-2c0-.25,0-.29.23-.29,1-.08,1-.09,1,.92Z" transform="translate(-498.62 -369.66)"/></svg>