<?xml version="1.0" encoding="utf-8"?>
<!-- Generator: Adobe Illustrator 23.0.1, SVG Export Plug-In . SVG Version: 6.00 Build 0)  -->
<svg version="1.1" id="Layer_1" xmlns="http://www.w3.org/2000/svg" xmlns:xlink="http://www.w3.org/1999/xlink" x="0px" y="0px"
	 viewBox="0 0 27.5 27.5" style="enable-background:new 0 0 27.5 27.5;" xml:space="preserve">
<style type="text/css">
	.st0{fill-rule:evenodd;clip-rule:evenodd;fill:#221F1F;}
</style>
<title>instagram</title>
<path class="st0" d="M19,6.7H8.6C7.6,6.6,6.8,7.2,6.7,8.1c0,0.1,0,0.3,0,0.4V19c-0.1,0.9,0.5,1.7,1.4,1.8c0.1,0,0.2,0,0.4,0H19
	c0.9,0.1,1.8-0.5,1.9-1.5c0-0.1,0-0.3,0-0.4V8.5c0.1-0.9-0.6-1.8-1.5-1.9C19.2,6.7,19.1,6.7,19,6.7z M17.8,8.3c1.4,0,1.4,0,1.4,1.4
	s0,1.4-1.4,1.4s-1.4,0-1.4-1.4S16.4,8.3,17.8,8.3z M13.8,11c1.5,0,2.7,1.2,2.7,2.8s-1.2,2.7-2.8,2.7c-1.5,0-2.7-1.2-2.7-2.8
	C11.1,12.3,12.3,11.1,13.8,11L13.8,11z M19.2,18.4c0,0.7-0.2,0.8-0.8,0.8H9.2c-0.6,0-0.8-0.2-0.8-0.8c0-1.7,0-3.4,0-5.1
	c0-0.5,0.1-0.6,0.6-0.6c0.6,0,0.7,0,0.6,0.7c-0.3,2.4,1.5,4.5,3.8,4.8c2.1,0.2,4-1.1,4.6-3.1c0.2-0.6,0.2-1.3,0.1-2
	c0-0.2,0-0.3,0.2-0.3c1-0.1,1-0.1,1,0.9L19.2,18.4z"/>
</svg>
