<?xml version="1.0" encoding="utf-8"?>
<!-- Generator: Adobe Illustrator 23.0.1, SVG Export Plug-In . SVG Version: 6.00 Build 0)  -->
<svg version="1.1" id="Layer_1" xmlns="http://www.w3.org/2000/svg" xmlns:xlink="http://www.w3.org/1999/xlink" x="0px" y="0px"
	 viewBox="0 0 26.1 26.1" style="enable-background:new 0 0 26.1 26.1;" xml:space="preserve">
<style type="text/css">
	.st0{fill:none;stroke:#221F1F;stroke-linecap:round;stroke-linejoin:round;}
</style>
<title>telegram</title>
<line class="st0" x1="8.8" y1="14.3" x2="10.2" y2="18.1"/>
<polygon class="st0" points="10.4,15 10.2,18.2 12.3,16.4 "/>
<path class="st0" d="M18.5,7.3l-13.1,5c-0.2,0.1-0.3,0.3-0.3,0.5c0,0.1,0.1,0.2,0.3,0.3l3.4,1.1l7.7-4.6L10.4,15l4.7,3.6
	c0.4,0.3,0.9,0.2,1.2-0.2c0.1-0.1,0.1-0.2,0.1-0.3L19,7.8c0.1-0.2-0.1-0.5-0.3-0.5C18.7,7.3,18.6,7.3,18.5,7.3z"/>
</svg>
