<svg id="Layer_1" data-name="Layer 1" xmlns="http://www.w3.org/2000/svg" viewBox="0 0 27.5 27.5"><defs><style>.cls-1,.cls-2{fill:#221f1f;}.cls-2{fill-rule:evenodd;}</style></defs><title>twitter</title><path class="cls-1" d="M512.1,370.89A13.08,13.08,0,1,1,499,384a13.07,13.07,0,0,1,13.08-13.08m0-.67A13.75,13.75,0,1,0,525.84,384a13.76,13.76,0,0,0-13.74-13.75Z" transform="translate(-498.35 -370.22)"/><path class="cls-2" d="M504.18,389.29a7.48,7.48,0,0,0,3.59-.61,6.44,6.44,0,0,0,1.43-.87,3.34,3.34,0,0,1-1.48-.37,3.39,3.39,0,0,1-1.64-1.83c-.08-.19-.08-.19.13-.17a2.87,2.87,0,0,0,1.26-.08,4,4,0,0,1-.81-.31,3.46,3.46,0,0,1-1.86-2.94c0-.15,0-.17.17-.1a3.26,3.26,0,0,0,1.35.37c-.22-.2-.41-.36-.58-.53a3.52,3.52,0,0,1-.55-3.89c.09-.17.12-.17.24,0a9.74,9.74,0,0,0,6,3.35c.25,0,.52,0,.77.1s.18-.06.16-.18a3.44,3.44,0,0,1,5.75-3.1.39.39,0,0,0,.38.09,6.21,6.21,0,0,0,1.82-.71.33.33,0,0,0,.14-.09,3.38,3.38,0,0,1-1.45,1.9,7.06,7.06,0,0,0,1.86-.48c0,.08-.05.13-.09.19a7,7,0,0,1-1.42,1.46.28.28,0,0,0-.13.27,10,10,0,0,1-2.37,6.72,9.33,9.33,0,0,1-5.75,3.22,9.75,9.75,0,0,1-6.83-1.33Z" transform="translate(-498.35 -370.22)"/></svg>