<?xml version="1.0" encoding="utf-8"?>
<!-- Generator: Adobe Illustrator 23.0.1, SVG Export Plug-In . SVG Version: 6.00 Build 0)  -->
<svg version="1.1" id="Layer_1" xmlns="http://www.w3.org/2000/svg" xmlns:xlink="http://www.w3.org/1999/xlink" x="0px" y="0px"
	 viewBox="0 0 27.5 27.5" style="enable-background:new 0 0 27.5 27.5;" xml:space="preserve">
<style type="text/css">
	.st0{fill-rule:evenodd;clip-rule:evenodd;fill:#221F1F;}
</style>
<title>twitter</title>
<path class="st0" d="M5.8,19.1c1.2,0.1,2.5-0.1,3.6-0.6c0.5-0.2,1-0.5,1.4-0.9c-0.5,0-1-0.1-1.5-0.4c-0.8-0.4-1.3-1-1.6-1.8
	c-0.1-0.2-0.1-0.2,0.1-0.2c0.4,0.1,0.9,0,1.3-0.1c-0.3-0.1-0.6-0.2-0.8-0.3c-1.1-0.6-1.8-1.7-1.9-2.9c0-0.1,0-0.2,0.2-0.1
	C7,12,7.5,12.1,8,12.2c-0.2-0.2-0.4-0.4-0.6-0.5c-1-1.1-1.2-2.6-0.5-3.9c0.1-0.2,0.1-0.2,0.2,0c1.5,1.8,3.7,3,6,3.4
	c0.2,0,0.5,0,0.8,0.1S14,11.1,14,11c-0.3-1.9,0.9-3.7,2.8-4c1.1-0.2,2.2,0.1,3,0.9C19.9,8,20,8,20.1,8c0.6-0.1,1.3-0.4,1.8-0.7
	c0.1,0,0.1,0,0.1-0.1c-0.2,0.8-0.8,1.5-1.5,1.9c0.6-0.1,1.3-0.2,1.9-0.5c0,0.1,0,0.1-0.1,0.2c-0.4,0.6-0.9,1-1.4,1.5
	c-0.1,0.1-0.1,0.2-0.1,0.3c0.1,2.5-0.8,4.8-2.4,6.7C17,19,15,20.1,12.7,20.5C10.4,20.9,8,20.4,5.8,19.1L5.8,19.1z"/>
</svg>
